# xmcd CD database file
#
# Track frame offsets:
#	150
#	16859
#	39177
#	52493
#	68102
#	85315
#	104106
#	115038
#	127752
#	136025
#	149912
#	162015
#	178463
#	205302
#	227421
#	240690
#	251985
#	269182
#	275215
#	294477
#	311016
#
# Disc length: 4288 seconds
#
# Revision: 0
# Processed by: cddbd v1.5.2PL0 Copyright (c) Steve Scherf et al.
# Submitted via: Feurio! 1.68 - http://www.feurio.com
#
DISCID=4b10be15
DTITLE=Curtis Jones - The Complete Blue Horizon Sessions
DYEAR=1900
DGENRE=blues
TTITLE0=You Don't Have To Go
TTITLE1=I Want To Be Your Slave
TTITLE2=Morocco Blues
TTITLE3=Cherie
TTITLE4=Please Believe Me
TTITLE5=Gee, Pretty Baby
TTITLE6=Let Your Hair Down
TTITLE7=Jane
TTITLE8=Born In Naples, Texas [interview]
TTITLE9=Soul Brother Blues
TTITLE10=Dryburgh Drive
TTITLE11=You Don't Have To Go
TTITLE12=I Want To Be Your Slave
TTITLE13=I Want To Be Your Slave
TTITLE14=Morocco Blues
TTITLE15=Let Your Hair Down
TTITLE16=Jane
TTITLE17=Born In Naples, Texas [interview]
TTITLE18=Blues On The Scene
TTITLE19=Dryburgh Drive
TTITLE20=Dryburgh Drive
EXTD=#12-21 previously unreleased
EXTT0=tk 2, master
EXTT1=tk 4, master
EXTT2=tk 2, master
EXTT3=
EXTT4=
EXTT5=
EXTT6=tk 3, master
EXTT7=tk 2, master
EXTT8=
EXTT9=
EXTT10=tk 5, master
EXTT11=tk 1
EXTT12=tk 2
EXTT13=tk 3
EXTT14=tk 1
EXTT15=tk 2
EXTT16=tk 1
EXTT17=
EXTT18=
EXTT19=tk 2
EXTT20=tk 3 and 4 (edit)
PLAYORDER=
